<?xml version="1.0" encoding="utf-8"?>
<!-- Generator: Adobe Illustrator 22.1.0, SVG Export Plug-In . SVG Version: 6.00 Build 0)  -->
<svg version="1.1" id="Layer_1" xmlns="http://www.w3.org/2000/svg" xmlns:xlink="http://www.w3.org/1999/xlink" x="0px" y="0px"
	 viewBox="0 0 1789.2 1310.6" style="enable-background:new 0 0 1789.2 1310.6;" xml:space="preserve">
<style type="text/css">
	.st0{fill:#50BFA5;}
	.st1{fill:#3C8F7C;}
	.st2{fill:#355389;}
	.st3{fill:#466EB6;}
	.st4{fill:#F7CC7F;}
	.st5{fill:#FAE0B2;}
	.st6{fill:#96D9C9;}
	.st7{fill:#F48C7F;}
	.st8{fill:#B75742;}
	.st9{fill:#86B1F2;}
	.st10{fill:#F47458;}
	.st11{fill:#184655;}
	.st12{fill:#F7A491;}
	.st13{fill:#13375B;}
	.st14{fill:#FFFFFF;}
	.st15{fill:#9BC1F9;}
</style>
<g>
	<polygon class="st0" points="681.6,250 667.6,254.3 658.1,232.6 636.9,236.3 627.2,221.2 619.5,226.1 632.5,246.4 652.6,242.8 
		662.4,265.5 683.5,259 	"/>
	<polygon class="st0" points="1580.5,1033.8 1566.5,1038.1 1557.1,1016.3 1535.8,1020 1526.1,1004.9 1518.4,1009.8 1531.4,1030.1 
		1551.5,1026.5 1561.3,1049.2 1582.4,1042.7 	"/>
	<g>
		<g>
			<path class="st0" d="M595.2,1291.7c0,0-74.8-253.5-80.8-309.4c-6-55.9,35.8-38.6,35.8-38.6s-35.2-106.6-9.7-131.9
				c25.4-25.3,48.4,21.9,48.4,21.9s7.7-129.4,34.8-129.4c50.5-0.1,49.5,141.1,49.5,141.1s12.9-55.3,40-40.1
				c40.8,22.8-17.7,133.6-17.7,133.6s52,0,70.3,26.3C798.5,1012.1,595.2,1291.7,595.2,1291.7z"/>
		</g>
	</g>
	<g>
		<g>
			<path class="st0" d="M619.7,1258.2c0,0-215.6-36.1-262.5-74.3c-46.9-38.2-0.5-55.4-0.5-55.4s-108.3-55.5-107.1-93.3
				c1.3-37.8,55.1-18.6,55.1-18.6S213.4,912.5,235,892.8c40.2-36.8,145.8,71.4,145.8,71.4s-31.3-51.5,1.7-59.6
				c49.8-12.3,86.5,114.6,86.5,114.6s-9.3-50.1,25-43.4C555.4,987.7,619.7,1258.2,619.7,1258.2z"/>
		</g>
		<path class="st1" d="M493.9,975.7c-34.4-6.2-25,43.4-25,43.4s-36.7-126.9-86.5-114.6c-33,8.1-1.7,59.6-1.7,59.6
			S275.2,856,235,892.8l384,365.5C612.1,1223.3,551.5,986.1,493.9,975.7z"/>
	</g>
	<g>
		<path class="st2" d="M681,1287.9c0,0-113.6-115.5-170.7-127.5c-57.2-12-46.9,28.7-46.9,28.7s-113.5-99.2-139.8-75.2
			c-26.3,24,2.1,47.3,2.1,47.3s-94.5-16.7-108,14.3c-20.8,47.7,134.6,73.6,134.6,73.6s-65.1,4.5-50,34.4
			C325.1,1328.5,681,1287.9,681,1287.9z"/>
		<path class="st3" d="M217.7,1175.4c13.5-31,108-14.3,108-14.3s-28.4-23.2-2.1-47.3c26.3-24,136.2,61.7,136.2,61.7
			s-25.9-49.5,31.3-37.5c57.2,12,189.9,149.9,189.9,149.9L217.7,1175.4z"/>
	</g>
	<g>
		<path class="st4" d="M861.8,96.9c-38.2,6.3-49.6,56.5-17.8,78.9c5.7,4,9.7,10.1,11.3,16.9l5.8,23.3c1.6,6.4,7.9,10.6,14.4,9.5
			l14.5-2.4c6.5-1.1,11.2-7,10.6-13.6c-2-24.1-4.5-32.8,3.3-43.6C926.8,134.5,900,90.6,861.8,96.9z"/>
		<g>
			<path class="st5" d="M865.7,198.9c-2.5-20.6-6-42.4-7.2-48.6c-21.9,1.2-13.6-21.9-3.5-12.5c2.9,2.7,4.2,6.3,5.1,10.3
				c7.3-0.7,14.4-2.7,20.9-6.1c-0.3-5.1-0.9-8.9,0.6-12.2c2.1-4.9,8.4-6.3,10.9-1.5c1,1.8,1.1,4.1,0.4,6c-1.5,4.1-5.9,6.8-9.7,8.9
				c1.2,16.4,2.7,32.9,4.8,49.2l-2.1,0.3c-2-16-3.6-32.3-4.7-48.4c-6.4,3.2-13.4,5.2-20.6,5.9c1.5,7.9,4.8,29.1,7.1,48.5
				L865.7,198.9z M848.1,145.4c1.9,2.1,5.2,3,10,2.8c-0.8-3.5-2-6.7-4.5-8.9C848.2,134.2,844.8,141.9,848.1,145.4z M883.5,130.6
				c-1.2,2.7-0.7,6.2-0.5,10.3c3.1-1.8,6.8-4,7.9-7.3c0.8-2.3-0.1-5.5-2.4-6.1C888.3,127.4,884.4,128.7,883.5,130.6z"/>
		</g>
		<path class="st6" d="M855.2,192.1c0.1,0.2,0.1,0.4,0.2,0.6l5.8,23.3c1.6,6.4,7.9,10.6,14.4,9.5l14.5-2.4c6.5-1.1,11.2-7,10.6-13.6
			c-0.9-10.7-1.9-18.4-2-24.6L855.2,192.1z"/>
		<g>
			<path class="st5" d="M833.5,79.5L822,58.6c-1.1-2-0.4-4.6,1.7-5.7c2-1.1,4.6-0.4,5.7,1.7l11.4,20.9c1.1,2,0.4,4.6-1.7,5.7
				C837.1,82.2,834.6,81.5,833.5,79.5z"/>
		</g>
		<g>
			<path class="st5" d="M808.5,129.9l-24.9-2.2c-2.3-0.2-4-2.2-3.8-4.5c0.2-2.3,2.2-4,4.5-3.8l24.9,2.2c2.3,0.2,4,2.2,3.8,4.5
				C812.8,128.4,810.8,130.1,808.5,129.9z"/>
		</g>
		<g>
			<path class="st5" d="M783.8,206.3c-1.6-1.6-1.6-4.3,0-5.9c6.1-6.1,12.9-11.5,20-16.3c1.9-1.3,4.5-0.8,5.8,1.2
				c1.3,1.9,0.8,4.5-1.2,5.8c-6.7,4.5-13,9.6-18.8,15.3C788,208,785.4,208,783.8,206.3z"/>
		</g>
		<g>
			<path class="st5" d="M895,78.3c-2.2-0.6-3.5-2.9-3-5.1c2.8-10.6,4.6-21.5,5.1-32.4c0.1-2.3,2.1-4.1,4.4-3.9
				c2.3,0.1,4.1,2.1,3.9,4.4c-0.6,11.5-2.4,23-5.4,34.1C899.5,77.6,897.2,78.9,895,78.3z"/>
		</g>
		<g>
			<path class="st5" d="M920.7,110.4c-0.7-2.2,0.6-4.5,2.8-5.2l25.9-7.8c2.2-0.7,4.5,0.6,5.2,2.8c0.7,2.2-0.6,4.5-2.8,5.2l-25.9,7.8
				C923.7,113.8,921.3,112.6,920.7,110.4z"/>
		</g>
		<g>
			<path class="st5" d="M963.2,179.3c-0.4,0-0.8-0.1-1.1-0.2c-9-2.5-17.7-6-25.9-10.4c-2-1.1-2.8-3.6-1.7-5.6c1.1-2,3.6-2.8,5.6-1.7
				c7.7,4.1,15.9,7.4,24.3,9.7c2.2,0.6,3.5,2.9,2.9,5.1C966.7,178.1,965,179.3,963.2,179.3z"/>
		</g>
	</g>
	<path class="st4" d="M1342.6,363.6l-13.1-30.9l-32.9-6.8c-3.7-0.8-5-5.5-2.1-8l25.4-22l-3.7-33.3c-0.4-3.8,3.7-6.4,7-4.5l28.7,17.3
		l30.6-13.9c3.5-1.6,7.3,1.5,6.4,5.2l-7.6,32.7l22.6,24.8c2.6,2.8,0.8,7.4-3,7.7l-33.4,2.9l-16.6,29.2
		C1349,367.4,1344.1,367.1,1342.6,363.6z"/>
	<polygon class="st7" points="1550.6,257.5 1545.3,279.2 1509.5,274.4 1497.8,305 1470.4,305.8 1470.8,319.7 1507.4,318.6 
		1518.5,289.6 1555.7,294.6 1563.8,262 	"/>
	<path class="st8" d="M1232,1294.6H603.4c-24,0-43.5-20.2-43.5-45.1v-26.8c0-24.9,19.5-45.1,43.5-45.1H1232l0,0
		c-28.8,32.6-29.3,82.4-1.2,115.6L1232,1294.6z"/>
	<path class="st5" d="M1222.3,1191H873.6c-24,0-43.5,20.2-43.5,45.1l0,0c0,24.9,19.5,45.1,43.5,45.1h348.7
		C1206,1253.5,1206.1,1218.6,1222.3,1191z"/>
	<path class="st9" d="M1011.2,1096.3c0.9-1.7-0.5-3.7-2.6-3.7H675.9c-26.1,0-47.2,19-47.2,42.5l0,0c0,23.5,21.1,42.5,47.2,42.5
		h332.7c2.1,0,3.5-2,2.6-3.7l0,0C998.1,1149.3,998.1,1120.8,1011.2,1096.3z"/>
	<path class="st4" d="M1009.1,1100.5H844.2c-30.6,0-55.4,15.9-55.4,35.6c0,19.7,24.8,35.6,55.4,35.6h165.9
		C998.8,1149.1,998.5,1123.3,1009.1,1100.5z"/>
	<g>
		<path class="st8" d="M966.5,1117.4H945c-4.6,0-8.4,1.6-8.4,3.5v0.3h29.8V1117.4z"/>
		<path class="st10" d="M984.8,1126.1c0-4.8-5.6-8.7-12.5-8.7h-27.6c5.2,0,9.5,2.9,9.5,6.6l-0.1,93.1l15.2-12l15.5,12L984.8,1126.1z
			"/>
	</g>
	<g>
		<path class="st5" d="M950,1089.5H756.5c-17.2,0-31.1-16.5-31.1-36.9l0,0c0-20.4,13.9-36.9,31.1-36.9H950l0,0
			c-14.8,20.4-15.4,50.4-1.4,71.7L950,1089.5z"/>
		<path class="st3" d="M725.4,1052.7L725.4,1052.7c0-20.4,14.2-36.9,31.8-36.9h196.5c0.9,0,1.7-0.9,1.6-1.9l0,0c0-1-0.7-1.9-1.6-1.9
			H642c-19.4,0-35.1,18.2-35.1,40.7l0,0c0,22.5,15.7,40.7,35.1,40.7h311.7c0.9,0,1.6-0.8,1.6-1.9l0,0c0-1.1-0.7-1.9-1.6-1.9H757.2
			C739.6,1089.5,725.4,1073,725.4,1052.7z"/>
		<g>
			<path class="st11" d="M916.2,1033.9h-21.5c-4.6,0-8.4,1.5-8.4,3.4v0.3h29.8V1033.9z"/>
			<path class="st1" d="M934.5,1042.4c0-4.7-5.6-8.5-12.5-8.5h-27.6c5.2,0,9.5,2.9,9.5,6.5l-0.1,91.3l15.2-11.7l15.5,11.7
				L934.5,1042.4z"/>
		</g>
	</g>
	<g>
		<g>
			<path class="st11" d="M1258.4,470l28.6-7.5l-19.4,258.3l-34.3,1.1l17.3-242.5C1250.9,474.9,1254,471.2,1258.4,470z"/>
			<g>
				<path class="st4" d="M1270.2,728.2c-0.6,0.1-1.3,0.1-2,0c-5.7-0.7-9.9-6.3-9.4-12.6l19-242.9c0.5-6.3,5.5-10.9,11.2-10.2
					c5.7,0.7,9.9,6.3,9.4,12.6l-19,242.9C1278.9,723.5,1275,727.7,1270.2,728.2z"/>
				<path class="st4" d="M1007.2,741.1c0,0.2,0,0.4,0,0.5l0,0c0.9,9.9,8.6,17.3,17.1,16.5l241.3-21.6c8.5-0.8,14.8-9.4,13.9-19.3
					c0-0.4-0.1-0.8-0.2-1.2L1007.2,741.1z"/>
			</g>
		</g>
		<path class="st12" d="M1175.2,1002c-15.8,8.8-64.1-6.6-64.1-8c-0.7,13.2-54.1,142.4-54.1,142.4l0,39.8c0,0,110,5.2,108.4-4.5
			c-1.6-9.7-7.5-3.4-29.4-21.8c-1.9-1.6-32.8-8.8-24.4-27C1128.4,1086.2,1164.1,1024.9,1175.2,1002z"/>
		<path class="st1" d="M1053.5,1177.6l120.4,0c4.3-0.4,5.4-4,3.8-6.1c-3.2-4.4-26.2-14.9-41.8-21.8c-27,3.2-74.5-7.2-78.9-13.4
			C1045.6,1151.6,1051,1177.1,1053.5,1177.6z"/>
		<path class="st2" d="M1027,909.2c-1.6-4.9,103.7-49.6,108.4-44.5c8.3,9-57,178.6-57,178.6l75,22.9c0,0,78-195.9,74.8-231.7
			c-3.3-35.8-42.3-76.5-127-50.5C1016.6,810.1,1027,909.2,1027,909.2z"/>
		<path class="st12" d="M1245.1,1024.3c-17.8-3.2-40.8-4.2-59.3-4.5c2.2,16.4,12.7,100.6,10.8,105.8c-7.8,21-25.2,30.8-25.2,30.8
			s81.8,73.8,86.7,65.3c4.9-8.5-3.6-7.4-9-35.5c-0.5-2.5-12.3-41.7-13-62.9C1234.8,1082.9,1244.5,1046.7,1245.1,1024.3z"/>
		<path class="st3" d="M1218.8,748.8c-11.4-6.1-41-6.3-73.6-4.2c-63.5,4.1-126.2,16.6-186.5,36.6l-40.4,13.4l0.1-41.4
			c0,0-128.6-21.5-133,10.4c-6.7,48,1.6,145.4,44.5,167.1c133,67.5,319.5-107.6,320.2-84.7c0.9,30.8,26.8,145.3,33.5,195.4
			c18.4,0.3,50.1,0.3,63.9-2.8C1250.1,940.3,1251.3,766.1,1218.8,748.8z"/>
		<path class="st1" d="M1169,1158.1l91.9,73.4c3.6,2.4,6.7,0.3,6.8-2.3c0.4-5.4-10.9-28.1-18.5-43.3c-22.9-14.7-53.1-53-52.6-60.5
			C1187,1133.6,1167.4,1156.2,1169,1158.1z"/>
		<path class="st13" d="M960.9,348.3c-3.1-28.2-6.3-56.6-29.7-77.2c-18.9-16.7-43-19.6-66.8-10.6c-67.5,25.4-32.7,85.3-118.7,145.7
			c-26.7,18.8-56.2,31.6-76.3,56.9c-28.2,35.4-17.5,77.9,8.1,106.3c122.8,135.9,259.9-47.6,269.8-91.7
			C954.6,444.8,962.9,366.4,960.9,348.3z"/>
		<path class="st0" d="M936,507c-10-18.5-20.4-33.2-20.4-33.2c-10.4-18.5-37.3-27.9-37.3-27.9s-9,0.2-19.3,0.7
			c-0.6,1.7-1.3,2.9-1.9,3.4c-3.9,2.9-26.1-0.8-40.5,8.9c-48.1,41.3-34.8,241.3-31,304.5l146.6,1.4c0,0-18.5-136,11.3-170.9
			C964.2,569.7,950.8,534.4,936,507z"/>
		<path class="st12" d="M869.9,378.3c0,0-8.1,57.6-13.7,71.6c-5.6,14,31,43.9,61.4,53c30.4,9.1-9.3-30.9-8-45.9
			c1.3-15,6.8-85.8,6.8-85.8L869.9,378.3z"/>
		<path class="st10" d="M914.8,391.5c0.9-11.7,1.5-20.3,1.5-20.3l-46.5,7.1c0,0-1.2,6.8-2.5,16.3
			C886.2,405.5,903.2,402.1,914.8,391.5z"/>
		<path class="st12" d="M884.4,273.2c0,0-18.3,4.1-29.6,21.4c-11.3,17.3-19.1,68,18.2,91.8c37.2,23.7,66.2-9.8,66.7-42.5
			C940.2,311,933.1,267.4,884.4,273.2z"/>
		<path class="st12" d="M948.2,333.5c-3.2,7.9-9.5,12.8-14.1,10.9c-4.6-1.9-5.8-9.8-2.6-17.6c3.2-7.9,9.5-12.8,14.1-10.9
			C950.2,317.7,951.4,325.6,948.2,333.5z"/>
		<path class="st13" d="M889.9,272.1c0,0-23.3,52.4-43.9,57c-20.5,4.7-20.2,31-20.2,31s0.5-60.8,19.7-74.8
			C864.8,271.4,889.9,272.1,889.9,272.1z"/>
		<path class="st12" d="M854.2,340c2.7,8.5,0.2,16.9-5.5,18.7c-5.7,1.8-12.6-3.6-15.3-12.1c-2.7-8.5-0.2-16.9,5.5-18.7
			C844.7,326.1,851.5,331.5,854.2,340z"/>
		<path class="st12" d="M1116.5,718c-8.8-3.2-21.9-3.6-21.7-4.7c0.9-4.7,39.7,10.4,34.5,3.5c-2.9-3.8-32-17.3-39.1-15.1
			c-6.9,2.2-51.9,14.8-51.9,14.8l-123.1-28.9c0,0-31.1-70.6-34.1-131.3c-25.7,3.5-43.2,9.8-65.5,22.2c10.8,58,36.9,152.1,65.9,169.7
			c12.2,7.4,157.5-8.9,157.5-8.9s32-2.3,37.3-4.3c4-1.5,14.2-7.3,19.7-8.9c12.6-3.6,35.1,5.4,35.2,2.9
			C1131.2,727.4,1125.5,721.3,1116.5,718z"/>
		<path class="st6" d="M881.9,491.6c-1.2-18.7-8.3-36.7-28.1-42.5c-12.3-3.6-26.1-0.2-36,7.9c-11.7,9.6-15,24.9-14.9,39.4
			c0.1,33,2.4,67.1,8.4,99.6c22.3-12.4,48.4-19.8,74.1-23.3C885.3,572.4,883.4,516.2,881.9,491.6z"/>
	</g>
	<g>
		<path class="st4" d="M500.5,526.8l-190.9-35.5c-3.8-0.7-6.4-4.4-5.6-8.2l23.9-128.4c0.7-3.8,4.4-6.4,8.2-5.6l190.9,35.5
			c3.8,0.7,6.4,4.4,5.6,8.2l-23.9,128.4C508,525,504.3,527.5,500.5,526.8z"/>
		<path class="st4" d="M409.6,380l-58.1-10.8c-3.8-0.7-6.4-4.4-5.6-8.2l3.6-19.5c0.7-3.8,4.4-6.4,8.2-5.6l58.1,10.8
			c3.8,0.7,6.4,4.4,5.6,8.2l-3.6,19.5C417.1,378.2,413.4,380.7,409.6,380z"/>
		<path class="st5" d="M509.1,521.9c-1,3.5-4.5,5.7-8.1,5L309,491.1c-3.6-0.7-6.1-3.9-5.7-7.6l10.1-115.1c0.2-2,1.2-3.8,2.8-5
			c1.6-1.2,3.6-1.7,5.6-1.3L535,401.9c2,0.4,3.7,1.5,4.7,3.2c1,1.7,1.3,3.7,0.8,5.6L509.1,521.9z"/>
	</g>
	<g>
		<polygon class="st0" points="1384.5,101.3 1351.9,110.3 1344.8,70.6 1355.5,68.7 1360.5,96.6 1381.7,90.9 		"/>
	</g>
	<g>
		<path class="st2" d="M343.3,645.3c8.2-0.7,20.8,2.9,26.4,6.8c0.8,0.8,7.3,3.4,14.1,14.5l-1.5,1c-7.1-7.4-11.9-9.1-17.6-10.8
			c-9.4-2.4-18.8-0.6-19.6-0.2L343.3,645.3z"/>
		<path class="st10" d="M383,667.1c0,0-49.9,8.3-45.2,47.3c4.7,39,57.3,69.3,104.2,45.2c63.2-32.4,38.2-114.8-6.7-121.2
			C390.3,632,383,667.1,383,667.1z"/>
		<path class="st7" d="M404.2,649.9c0,0,13-13.4,41.5-1.2c28.5,12.2,30.6,68.8,5.1,65.5C425.4,710.9,383.8,658.1,404.2,649.9z"/>
	</g>
	<g>
		<path class="st9" d="M747.2,132.4l-205.1,73.2c-6.6,2.4-13.9-1.1-16.2-7.7L488,91.7c-2.4-6.6,1.1-13.9,7.7-16.2L700.8,2.3
			c6.6-2.4,13.9,1.1,16.2,7.7l37.9,106.1C757.3,122.7,753.8,130,747.2,132.4z"/>
		<path class="st14" d="M611.3,105.1c7.5,21.1-3.5,44.4-24.6,51.9c-21.1,7.5-44.4-3.5-51.9-24.6c-7.5-21.1,3.5-44.4,24.6-51.9
			C580.5,72.9,603.7,83.9,611.3,105.1z"/>
		<path class="st9" d="M578.8,99.4c2.2,6.2-1,13.1-7.3,15.3c-6.2,2.2-13.1-1-15.3-7.3c-2.2-6.2,1-13.1,7.3-15.3
			C569.7,89.9,576.6,93.2,578.8,99.4z"/>
		<path class="st9" d="M598.3,132.8l-36.1,12.9l-1.4-4c-2.6-7.4,1.2-15.5,8.6-18.1l9.3-3.3c7.4-2.6,15.5,1.2,18.1,8.6L598.3,132.8z"
			/>
		<g>
			<path class="st14" d="M616.3,82.9c-2.2,0-4.1-1.4-4.9-3.4c-1-2.7,0.4-5.7,3.1-6.6l89.7-32c0.6-0.2,1.1-0.3,1.7-0.3
				c2.2,0,4.1,1.4,4.9,3.4c1,2.7-0.4,5.7-3.1,6.6l-89.7,32C617.5,82.8,616.9,82.9,616.3,82.9z"/>
		</g>
		<g>
			<path class="st14" d="M640.5,105.3c-2.2,0-4.1-1.4-4.9-3.4c-1-2.7,0.4-5.7,3.1-6.6l70-25c0.6-0.2,1.1-0.3,1.7-0.3
				c2.2,0,4.1,1.4,4.9,3.4c0.5,1.3,0.4,2.7-0.2,4c-0.6,1.3-1.6,2.2-2.9,2.7l-70,25C641.7,105.2,641.1,105.3,640.5,105.3z"/>
		</g>
	</g>
	<path class="st10" d="M1065.9,932.8H570.7c-15.4,0-27.8,12.5-27.8,27.8v23.4c0,15.4,12.5,27.8,27.8,27.8h495.2l-0.3-0.3
		C1044.4,989.6,1044.6,954.8,1065.9,932.8z"/>
	<path class="st5" d="M1057.1,944.6H792.4c-15.4,0-27.8,12.5-27.8,27.8l0,0c0,15.4,12.5,27.8,27.8,27.8h264.7
		C1047.4,983,1047.4,961.8,1057.1,944.6z"/>
	<g>
		<g>
			<path class="st5" d="M1471.2,935.1l-37.5-94.2c-1.9-4.7,0.4-10.1,5.2-12l135.1-53.8c4.7-1.9,10.1,0.4,12,5.2l37.5,94.2
				c1.9,4.7-0.4,10.1-5.2,12l-135.1,53.8C1478.5,942.2,1473.1,939.9,1471.2,935.1z"/>
			<path class="st3" d="M1598.7,880.7l-33.7-84.6c-0.5-1.4,0.1-2.9,1.5-3.4l0,0c1.4-0.5,2.9,0.1,3.4,1.5l33.7,84.6
				c0.5,1.4-0.1,2.9-1.5,3.4l0,0C1600.7,882.7,1599.2,882,1598.7,880.7z"/>
			<path class="st3" d="M1582.6,869.5l-27.7-69.5c-0.5-1.4,0.1-2.9,1.5-3.4l0,0c1.4-0.5,2.9,0.1,3.4,1.5l27.7,69.5
				c0.5,1.4-0.1,2.9-1.5,3.4l0,0C1584.7,871.5,1583.1,870.9,1582.6,869.5z"/>
			<path class="st3" d="M1578.6,888.7l-33.7-84.6c-0.5-1.4,0.1-2.9,1.5-3.4l0,0c1.4-0.5,2.9,0.1,3.4,1.5l33.7,84.6
				c0.5,1.4-0.1,2.9-1.5,3.4l0,0C1580.7,890.7,1579.1,890,1578.6,888.7z"/>
			<path class="st3" d="M1560.8,873.4l-26-65.3c-0.5-1.4,0.1-2.9,1.5-3.4l0,0c1.4-0.5,2.9,0.1,3.4,1.5l26,65.3
				c0.5,1.4-0.1,2.9-1.5,3.4l0,0C1562.9,875.4,1561.4,874.7,1560.8,873.4z"/>
			<g>
				<path class="st2" d="M1597.7,787l-0.7-1.7c-0.3-0.6-0.9-0.9-1.5-0.7l-12.8,5.1c-0.6,0.2-0.9,0.9-0.6,1.6l0.7,1.7
					c0.3,0.6,0.9,0.9,1.5,0.7l12.8-5.1C1597.7,788.3,1598,787.6,1597.7,787z"/>
				<path class="st2" d="M1600.6,794.3l-0.7-1.7c-0.3-0.6-0.9-0.9-1.5-0.7l-12.8,5.1c-0.6,0.2-0.9,0.9-0.6,1.6l0.7,1.7
					c0.3,0.6,0.9,0.9,1.5,0.7l12.8-5.1C1600.6,795.6,1600.9,794.9,1600.6,794.3z"/>
				<path class="st2" d="M1603.6,801.6l-0.7-1.7c-0.2-0.6-0.9-0.9-1.5-0.7l-12.8,5.1c-0.6,0.2-0.9,0.9-0.6,1.6l0.7,1.7
					c0.3,0.6,0.9,0.9,1.5,0.7l12.8-5.1C1603.5,802.9,1603.8,802.2,1603.6,801.6z"/>
				<path class="st2" d="M1606.5,808.9l-0.7-1.7c-0.3-0.6-0.9-0.9-1.5-0.7l-12.8,5.1c-0.6,0.2-0.9,0.9-0.6,1.6l0.7,1.7
					c0.3,0.6,0.9,0.9,1.5,0.7l12.8-5.1C1606.4,810.2,1606.7,809.5,1606.5,808.9z"/>
				<path class="st2" d="M1609.4,816.2l-0.7-1.7c-0.3-0.6-0.9-0.9-1.5-0.7l-12.8,5.1c-0.6,0.2-0.9,0.9-0.6,1.6l0.7,1.7
					c0.3,0.6,0.9,0.9,1.5,0.7l12.8-5.1C1609.3,817.5,1609.6,816.8,1609.4,816.2z"/>
				<path class="st2" d="M1612.3,823.5l-0.7-1.7c-0.3-0.6-0.9-0.9-1.5-0.7l-12.8,5.1c-0.6,0.2-0.9,0.9-0.6,1.6l0.7,1.7
					c0.3,0.6,0.9,0.9,1.5,0.7l12.8-5.1C1612.2,824.8,1612.5,824.1,1612.3,823.5z"/>
				<path class="st2" d="M1615.2,830.7l-0.7-1.7c-0.3-0.6-0.9-0.9-1.5-0.7l-12.8,5.1c-0.6,0.2-0.9,0.9-0.6,1.6l0.7,1.7
					c0.3,0.6,0.9,0.9,1.5,0.7l12.8-5.1C1615.1,832.1,1615.4,831.4,1615.2,830.7z"/>
				<path class="st2" d="M1618.1,838l-0.7-1.7c-0.3-0.6-0.9-0.9-1.5-0.7l-12.8,5.1c-0.6,0.2-0.9,0.9-0.6,1.6l0.7,1.7
					c0.3,0.6,0.9,0.9,1.5,0.7l12.8-5.1C1618.1,839.4,1618.3,838.7,1618.1,838z"/>
				<path class="st2" d="M1621,845.3l-0.7-1.7c-0.3-0.6-0.9-0.9-1.5-0.7L1606,848c-0.6,0.2-0.9,0.9-0.6,1.6l0.7,1.7
					c0.3,0.6,0.9,0.9,1.5,0.7l12.8-5.1C1621,846.7,1621.2,846,1621,845.3z"/>
				<path class="st2" d="M1623.9,852.6l-0.7-1.7c-0.3-0.6-0.9-0.9-1.5-0.7l-12.8,5.1c-0.6,0.2-0.9,0.9-0.6,1.6l0.7,1.7
					c0.3,0.6,0.9,0.9,1.5,0.7l12.8-5.1C1623.9,853.9,1624.1,853.2,1623.9,852.6z"/>
				<path class="st2" d="M1626.8,859.9l-0.7-1.7c-0.2-0.6-0.9-0.9-1.5-0.7l-12.8,5.1c-0.6,0.2-0.9,0.9-0.6,1.6l0.7,1.7
					c0.3,0.6,0.9,0.9,1.5,0.7l12.8-5.1C1626.8,861.2,1627,860.5,1626.8,859.9z"/>
				<path class="st2" d="M1629.7,867.2l-0.7-1.7c-0.3-0.6-0.9-0.9-1.5-0.7l-12.8,5.1c-0.6,0.2-0.9,0.9-0.6,1.6l0.7,1.7
					c0.2,0.6,0.9,0.9,1.5,0.7l12.8-5.1C1629.7,868.5,1630,867.8,1629.7,867.2z"/>
			</g>
		</g>
		<g>
			<path class="st8" d="M1665.1,859.7l-53.6,76.3c-0.1,0.2-0.2,0.4-0.3,0.6l-5.5,16.8c-0.6,2,1.6,3.6,3.3,2.3l14.3-10.8
				c0.2-0.1,0.3-0.3,0.5-0.5l53.8-76.5c0.7-1,0.4-2.3-0.6-3l-9-5.8C1667,858.5,1665.8,858.8,1665.1,859.7z"/>
			<path class="st4" d="M1623.8,944.5l-0.1,0.2l-13.8,10.4l-3.8-2.5l5.2-15.9C1615.3,938.9,1620.1,941.2,1623.8,944.5z"/>
		</g>
	</g>
	<g>
		<path class="st3" d="M1122,33.2c7.7,6.2,21.1,26,38.3,39.9c10,8.1,17.7,6.1,30.5,7.6c60.7,7.3,44.2,19.7,51.5,21
			c-2.1,4.8-21,44.9-24.5,53.1c-3.3,7.5-8.9,10.8-17.1,9.7c-12.5-1.7-25.2-3-37.6-5.7c-31.7-6.9-49.3-22.7-72-41.9
			c-6-5.1-7.5-11.5-4.4-18.7C1101.3,64.6,1120.4,36.3,1122,33.2z"/>
		<path class="st9" d="M1248.9,150c-0.3,13.2,0.7,15.9-4.9,13.9c-3.4-1.2-6.7-2.8-10-4.4c-2.3-1.2-2.4-2.7-0.5-4.6
			c2.7-2.7,5.5-5.3,8.2-8c-2-5.2,0.3-11.2,5.1-14.1c1-0.6,0.3,0.6,8.7-18.8c-27.9-3.4-47.7-5.8-81.8-10c-9.1-1.1-17.2-4.7-24.3-10.6
			c-24.4-20.4-48.7-40.8-73-61.1c-3.3-2.8-3.7-6.8-1.1-9.9c2-2.4,4.7-2.5,7.5-2.1c7.8,1,84.1,10.5,91.8,11.4
			c10.2,1.2,19.1,5,27,11.6c23.9,20,47.9,40,71.9,60c3.3,2.7,4.2,5.3,3,8.3c-1.3,3.4-4,5-8.2,4c-3-0.7-4.4,0.3-5.4,3.1
			c-4.7,12.6-8,15.4-6.8,20.1C1256.9,142.3,1252.7,148.5,1248.9,150z"/>
	</g>
	<g>
		<path class="st3" d="M1375.4,1048.4l13.9,13.3c32.9,31.4,59.7,68.5,79.1,109.6l2.1,4.5c0,0,36.4,3.2,41.5-29.7l0,0
			c-31.9-36.1-58.2-74.6-79.9-117.4l-6.6-15.4L1375.4,1048.4z"/>
		<path class="st9" d="M1425.5,1013.2c1.8,2.6-8,12.5-21.8,22.1c-13.8,9.6-26.6,15.5-28.3,12.9c-1.8-2.6,8-12.6,21.9-22.2
			C1411.1,1016.4,1423.7,1010.7,1425.5,1013.2z"/>
		<path class="st2" d="M1425.6,1013.3L1425.6,1013.3c0,0-27.8,23.4-39.2,25.8l3.5,4.8c4.2-2.3,8.9-5.2,13.8-8.6
			C1417.4,1025.8,1427.1,1016,1425.6,1013.3z"/>
		<g>
			<path class="st8" d="M1462.6,1081.4c0,4-1.5,21.5-30.5,28.8c1.9,2.6,3.8,5.2,5.6,7.9c18.4-5.4,26.6-14.9,30.4-22.1
				c0.6-1.1,1.3-2.7,1.8-3.8C1467.4,1088.6,1465,1085,1462.6,1081.4z"/>
			<polygon class="st8" points="1434.7,1105 1391.9,1103.5 1402.1,1112.1 1396,1123.1 1436.5,1112.8 			"/>
			<polygon class="st8" points="1438.6,1115 1423.4,1141.4 1434.1,1137.4 1438.2,1145.8 1445.3,1118 			"/>
			<path class="st10" d="M1444.4,1122.2c-7.5,0.5-14-5.3-14.6-13c-0.5-7.7,5.1-14.4,12.6-15c7.5-0.5,14,5.3,14.6,13
				C1457.5,1114.9,1451.9,1121.6,1444.4,1122.2z"/>
		</g>
	</g>
	<g>
		<path class="st15" d="M1535.1,522l-90-80.3c-5.8-5.2-3.4-16,4.7-20.5l71.8-40.7c4.6-2.6,9.8-2.4,13.1,0.6l90,80.3
			c5.8,5.2,3.4,16-4.7,20.5l-71.8,40.7C1543.6,525.2,1538.4,525,1535.1,522z"/>
		<g>
			<path class="st14" d="M1530.8,458.1l-7.5-61.7c-0.3-2.4,1.4-4.9,3.8-5.6c2.4-0.8,4.6,0.6,4.9,2.9l6.9,56.8l68.2,16.5
				c2.2,0.5,3.3,2.9,2.3,5.4c-1,2.4-3.5,3.9-5.8,3.4L1530.8,458.1z"/>
		</g>
	</g>
	<g>
		<path class="st11" d="M11.4,1293.8c-4.8,0-8.7,4.5-8.7,10.1c0,5.6,3.9,10.1,9.8,3.3h1772.6c2.3,0,4.1-3,4.1-6.7l0,0
			c0-3.7-1.8-6.7-4.1-6.7H11.4z"/>
	</g>
	<polygon class="st4" points="355.5,175.5 364.9,193.9 385.9,193.2 394.8,214.6 417,206.9 428.2,230.6 449.5,226.1 464,247.2 
		456,252.7 445.2,236.9 422.7,241.7 412,218.9 389.4,226.7 379.5,203.1 359,203.7 350.4,186.7 337,189.9 334.7,180.5 	"/>
	<polygon class="st0" points="1481.1,646.2 1500.2,654 1515.6,639.7 1536.4,649.9 1548.1,629.6 1572.1,640.1 1585.2,622.7 
		1610,629.1 1607.6,638.5 1589.1,633.7 1575.3,652.1 1552.2,641.9 1540.3,662.6 1517.3,651.3 1502.3,665.3 1484.6,658.1 
		1476.6,669.4 1468.7,663.8 	"/>
</g>
</svg>
