<?xml version="1.0" encoding="utf-8"?>
<!-- Generator: Adobe Illustrator 22.1.0, SVG Export Plug-In . SVG Version: 6.00 Build 0)  -->
<svg version="1.1" id="Слой_1" xmlns="http://www.w3.org/2000/svg" xmlns:xlink="http://www.w3.org/1999/xlink" x="0px" y="0px"
	 viewBox="0 0 2480.2 1775.8" style="enable-background:new 0 0 2480.2 1775.8;" xml:space="preserve">
<style type="text/css">
	.st0{fill-rule:evenodd;clip-rule:evenodd;fill:#FFFFCC;}
	.st1{fill-rule:evenodd;clip-rule:evenodd;fill:#EDDDC3;}
	.st2{fill-rule:evenodd;clip-rule:evenodd;fill:#E6E6E6;}
	.st3{fill-rule:evenodd;clip-rule:evenodd;fill:#D8F3FC;}
	.st4{fill-rule:evenodd;clip-rule:evenodd;fill:#EBFAFF;}
	.st5{fill-rule:evenodd;clip-rule:evenodd;fill:#CCCCCC;}
	.st6{fill-rule:evenodd;clip-rule:evenodd;fill:#3F526E;}
	.st7{fill-rule:evenodd;clip-rule:evenodd;fill:#8FB8CF;}
	.st8{fill-rule:evenodd;clip-rule:evenodd;fill:#99C4DC;}
	.st9{fill-rule:evenodd;clip-rule:evenodd;fill:#657892;}
	.st10{fill-rule:evenodd;clip-rule:evenodd;fill:#423B32;}
	.st11{fill-rule:evenodd;clip-rule:evenodd;fill:#736654;}
	.st12{fill-rule:evenodd;clip-rule:evenodd;fill:#663333;}
	.st13{fill-rule:evenodd;clip-rule:evenodd;fill:#55795F;}
	.st14{fill-rule:evenodd;clip-rule:evenodd;fill:#398550;}
	.st15{fill-rule:evenodd;clip-rule:evenodd;fill:#5EAC49;}
	.st16{fill-rule:evenodd;clip-rule:evenodd;fill:#49B747;}
	.st17{fill-rule:evenodd;clip-rule:evenodd;fill:#FF9933;}
	.st18{fill-rule:evenodd;clip-rule:evenodd;fill:#FF6633;}
	.st19{fill-rule:evenodd;clip-rule:evenodd;fill:#FFFFFF;}
	.st20{fill-rule:evenodd;clip-rule:evenodd;fill:#E08224;}
	.st21{fill-rule:evenodd;clip-rule:evenodd;fill:#C22248;}
	.st22{fill-rule:evenodd;clip-rule:evenodd;fill:#E79F79;}
	.st23{fill-rule:evenodd;clip-rule:evenodd;fill:#333333;}
	.st24{fill-rule:evenodd;clip-rule:evenodd;fill:#1A1A1A;}
	.st25{fill-rule:evenodd;clip-rule:evenodd;fill:#808080;}
	.st26{fill-rule:evenodd;clip-rule:evenodd;fill:#2B3E5A;}
	.st27{fill-rule:evenodd;clip-rule:evenodd;fill:#FBC9A6;}
	.st28{fill-rule:evenodd;clip-rule:evenodd;fill:#EB6274;}
	.st29{fill-rule:evenodd;clip-rule:evenodd;fill:#941835;}
	.st30{fill-rule:evenodd;clip-rule:evenodd;fill:#49658F;}
	.st31{fill:#941835;}
	.st32{fill-rule:evenodd;clip-rule:evenodd;fill:#D5CF9B;}
	.st33{fill-rule:evenodd;clip-rule:evenodd;fill:#A09A5D;}
	.st34{fill-rule:evenodd;clip-rule:evenodd;fill:#FF99CC;}
	.st35{fill-rule:evenodd;clip-rule:evenodd;fill:#F28ABE;}
	.st36{fill-rule:evenodd;clip-rule:evenodd;fill:#FF6600;}
	.st37{fill-rule:evenodd;clip-rule:evenodd;fill:#C95000;}
</style>
<g>
	<path class="st0" d="M2236.8,1762.5c150.6-155,243.4-366.5,243.4-599.8c0-475.4-385.4-860.9-860.9-860.9
		c-475.4,0-860.9,385.4-860.9,860.9c0,233.2,92.8,444.7,243.4,599.8H2236.8L2236.8,1762.5z"/>
	<path class="st1" d="M1045.3,387.2c131.5,128,399,549.1,554.6,446.6c155.8-102.6,335.7-145.9,498.2-33.4
		c166,114.9-87.3,902.3,113.7,788c288.5-164.1,231.5,100.8,265.2,187.4l-2307.1-24.2C96.9,1391.8-68.9,893.8,44,516.3
		C154,148.8,534.7-110.1,1045.3,387.2L1045.3,387.2z"/>
	<polygon class="st2" points="1192.1,981.8 2191.5,981.8 2191.5,6.4 1192.1,6.4 1192.1,981.8 	"/>
	<polygon class="st3" points="1226.8,944.1 2148.9,944.1 2148.9,44.1 1226.8,44.1 1226.8,944.1 	"/>
	<path class="st4" d="M1226.8,944.1h573.1c34.8-69.4,54.5-148.3,54.5-232.1c0-276.2-214-500-478.1-500c-52.2,0-102.5,8.8-149.6,25
		V944.1L1226.8,944.1z"/>
	<path class="st5" d="M1400,944.1h749V502.3h-157.2v241.4h-78.4V395h-145v315h-69V582.7H1545v172.4h-145V944.1L1400,944.1z
		 M1651,661.5h17.1v-31.1H1651V661.5L1651,661.5z M1821.5,531.2h17.1v-31.1h-17.1V531.2L1821.5,531.2z M1821.5,455.3h17.1v-31.1
		h-17.1V455.3L1821.5,455.3z M1788.4,455.3h17.1v-31.1h-17.1V455.3L1788.4,455.3z"/>
	<path class="st5" d="M1400,944.1h749V502.3h-157.2v241.4h-78.4V395h-145v315h-69V582.7H1545v172.4h-145V944.1L1400,944.1z
		 M1651,661.5h17.1v-31.1H1651V661.5L1651,661.5z M1821.5,531.2h17.1v-31.1h-17.1V531.2L1821.5,531.2z M1821.5,455.3h17.1v-31.1
		h-17.1V455.3L1821.5,455.3z M1788.4,455.3h17.1v-31.1h-17.1V455.3L1788.4,455.3z"/>
	<polygon class="st5" points="1679.2,944.1 1729.6,944.1 1729.6,710 1699.3,710 1699.3,582.7 1679.2,582.7 1679.2,944.1 	"/>
	<polygon class="st5" points="1166.2,1076.3 2221.1,1076.3 2221.1,1019.9 1166.2,1019.9 1166.2,1076.3 	"/>
	<polygon class="st2" points="1102.3,1019.9 2272.8,1019.9 2272.8,981.1 1102.3,981.1 1102.3,1019.9 	"/>
	<polygon class="st2" points="1684.5,6.4 1734.9,6.4 1734.9,978 1684.5,978 1684.5,6.4 	"/>
	<polygon class="st6" points="610.5,1475.9 2177.3,1475.9 2177.3,970.8 610.5,970.8 610.5,1475.9 	"/>
	<path class="st6" d="M550.2,1668.6h1696.4c17,0,30.8-13.9,30.8-30.8v-463.1c0-16.9-13.9-30.8-30.8-30.8H2144v332H652.8v-332H550.2
		c-16.9,0-30.8,13.9-30.8,30.8v463.1C519.4,1654.8,533.2,1668.6,550.2,1668.6L550.2,1668.6z"/>
	<path class="st7" d="M700.4,873.6h400.4c26.2,0,47.6,21.4,47.6,47.6v349.4c0,26.2-21.4,47.6-47.6,47.6H700.4
		c-26.2,0-47.6-21.4-47.6-47.6V921.2C652.8,895,674.2,873.6,700.4,873.6L700.4,873.6z"/>
	<path class="st7" d="M1198.2,873.6h400.4c26.2,0,47.6,21.4,47.6,47.6v349.4c0,26.2-21.4,47.6-47.6,47.6h-400.4
		c-26.2,0-47.6-21.4-47.6-47.6V921.2C1150.6,895,1172,873.6,1198.2,873.6L1198.2,873.6z"/>
	<path class="st7" d="M1696,873.6h400.4c26.2,0,47.6,21.4,47.6,47.6v349.4c0,26.2-21.4,47.6-47.6,47.6H1696
		c-26.2,0-47.6-21.4-47.6-47.6V921.2C1648.4,895,1669.8,873.6,1696,873.6L1696,873.6z"/>
	<path class="st7" d="M675.2,1475.9h1446.4c12.3,0,22.4-10.1,22.4-22.4v-106.6c0-12.3-10.1-22.4-22.4-22.4H675.2
		c-12.3,0-22.4,10.1-22.4,22.4v106.6C652.8,1465.8,662.9,1475.9,675.2,1475.9L675.2,1475.9z"/>
	<path class="st8" d="M2144,1362.2v-15.3c0-12.3-10.1-22.4-22.4-22.4H675.2c-12.3,0-22.4,10.1-22.4,22.4v15.3H2144L2144,1362.2z"/>
	<path class="st9" d="M1174.4,1356.6c288.1,0,521.6-6.4,521.6-14.3c0-7.9-233.5-14.3-521.6-14.3c-288.1,0-521.6,6.4-521.6,14.3
		C652.8,1350.2,886.3,1356.6,1174.4,1356.6L1174.4,1356.6z"/>
	<path class="st9" d="M1435.2,1775.6c520,0,941.6-6.4,941.6-14.3c0-7.9-421.6-14.3-941.6-14.3c-520,0-941.6,6.4-941.6,14.3
		C493.6,1769.2,915.1,1775.6,1435.2,1775.6L1435.2,1775.6z"/>
	<path class="st9" d="M244.2,1768.5c89.8,0,162.6-6.4,162.6-14.3c0-7.9-72.8-14.3-162.6-14.3c-89.8,0-162.6,6.4-162.6,14.3
		C81.6,1762.1,154.4,1768.5,244.2,1768.5L244.2,1768.5z"/>
	<polygon class="st10" points="686.9,1668.6 600.9,1668.6 584.1,1761.9 619.2,1761.9 686.9,1668.6 	"/>
	<polygon class="st11" points="651.6,1668.6 565.6,1668.6 545,1761.3 584.1,1761.9 651.6,1668.6 	"/>
	<polygon class="st10" points="2093.4,1668.6 2179.4,1668.6 2200.1,1762 2161.1,1761.3 2093.4,1668.6 	"/>
	<path class="st6" d="M791.8,1080.8c6.7,0,12.1-5.4,12.1-12.1c0-6.7-5.4-12.1-12.1-12.1c-6.7,0-12.1,5.4-12.1,12.1
		C779.7,1075.3,785.1,1080.8,791.8,1080.8L791.8,1080.8z"/>
	<polygon class="st6" points="738.3,1070.9 845.3,1070.9 845.3,1066.5 738.3,1066.5 738.3,1070.9 	"/>
	<polygon class="st6" points="794,1122.1 794,1015.2 789.6,1015.2 789.6,1122.1 794,1122.1 	"/>
	<path class="st6" d="M1283.9,1080.8c6.7,0,12.1-5.4,12.1-12.1c0-6.7-5.4-12.1-12.1-12.1c-6.7,0-12.1,5.4-12.1,12.1
		C1271.8,1075.3,1277.2,1080.8,1283.9,1080.8L1283.9,1080.8z"/>
	<polygon class="st6" points="1230.5,1070.9 1337.4,1070.9 1337.4,1066.5 1230.5,1066.5 1230.5,1070.9 	"/>
	<polygon class="st6" points="1286.1,1122.1 1286.1,1015.2 1281.7,1015.2 1281.7,1122.1 1286.1,1122.1 	"/>
	<path class="st6" d="M1776,1080.8c6.7,0,12.1-5.4,12.1-12.1c0-6.7-5.4-12.1-12.1-12.1c-6.7,0-12.1,5.4-12.1,12.1
		C1763.9,1075.3,1769.3,1080.8,1776,1080.8L1776,1080.8z"/>
	<polygon class="st6" points="1722.6,1070.9 1829.5,1070.9 1829.5,1066.5 1722.6,1066.5 1722.6,1070.9 	"/>
	<polygon class="st6" points="1778.2,1122.1 1778.2,1015.2 1773.8,1015.2 1773.8,1122.1 1778.2,1122.1 	"/>
	<path class="st6" d="M1028.6,1080.8c6.7,0,12.1-5.4,12.1-12.1c0-6.7-5.4-12.1-12.1-12.1c-6.7,0-12.1,5.4-12.1,12.1
		C1016.5,1075.3,1021.9,1080.8,1028.6,1080.8L1028.6,1080.8z"/>
	<polygon class="st6" points="975.1,1070.9 1082,1070.9 1082,1066.5 975.1,1066.5 975.1,1070.9 	"/>
	<polygon class="st6" points="1030.7,1122.1 1030.7,1015.2 1026.4,1015.2 1026.4,1122.1 1030.7,1122.1 	"/>
	<path class="st6" d="M1520.7,1080.8c6.7,0,12.1-5.4,12.1-12.1c0-6.7-5.4-12.1-12.1-12.1c-6.7,0-12.1,5.4-12.1,12.1
		C1508.6,1075.3,1514,1080.8,1520.7,1080.8L1520.7,1080.8z"/>
	<polygon class="st6" points="1467.2,1070.9 1574.1,1070.9 1574.1,1066.5 1467.2,1066.5 1467.2,1070.9 	"/>
	<polygon class="st6" points="1522.8,1122.1 1522.8,1015.2 1518.5,1015.2 1518.5,1122.1 1522.8,1122.1 	"/>
	<path class="st6" d="M2012.8,1080.8c6.7,0,12.1-5.4,12.1-12.1c0-6.7-5.4-12.1-12.1-12.1c-6.7,0-12.1,5.4-12.1,12.1
		C2000.7,1075.3,2006.1,1080.8,2012.8,1080.8L2012.8,1080.8z"/>
	<polygon class="st6" points="1959.3,1070.9 2066.2,1070.9 2066.2,1066.5 1959.3,1066.5 1959.3,1070.9 	"/>
	<polygon class="st6" points="2015,1122.1 2015,1015.2 2010.6,1015.2 2010.6,1122.1 2015,1122.1 	"/>
	<path class="st12" d="M343.8,1430.9c0-0.7-1.5-1.6-1.5-1.6c-13.5-2.7-56.4-5-103-5c-54.1,0-98.9,2.8-104.3,6.2
		c-0.4,0.2,0.1,0.8,0.1,0.8s46.4,6.3,104.1,6.3C239.2,1437.4,343.8,1434.5,343.8,1430.9z"/>
	<path class="st13" d="M254.8,1645c-15.5-302.7-33.9-415.4-68.4-649.4c-12.3,115-27.6,167.8-6.7,347.9
		C200.6,1523.5,223.6,1579.9,254.8,1645L254.8,1645z"/>
	<path class="st14" d="M238.6,1531.8c4.6-71.3-0.9-143-8.2-212.9c-8.1-69.3-14.9-131.6-32.7-195.9c-2,24.6-2.9,49-2.7,73.8
		c0.4,47.8,4.7,95.6,10.1,142.8c6.9,59.4,15.2,120.5,29.8,178.3C236.1,1522.5,237.3,1527.1,238.6,1531.8L238.6,1531.8z"/>
	<path class="st13" d="M260,1632.4c95.8-256.6,106.6-344.8,77.2-612.2c-40.2,102.9-69.2,148-88.5,318.2
		C229.4,1508.7,241.2,1565.6,260,1632.4L260,1632.4z"/>
	<path class="st14" d="M268.8,1524.7c21.6-64.5,39.7-129.9,48.1-195.9c7.9-62.5,7.2-125.9,2.8-189c-7.9,22.2-14.6,44.4-20.2,67.2
		c-10.7,44-17.2,88.9-22.3,133.5c-6.4,56.1-11.6,114.1-9.2,170.5C268.2,1515.6,268.5,1520.2,268.8,1524.7L268.8,1524.7z"/>
	<path class="st15" d="M256.4,1627.2c99-224.8,113.3-302.8,101.7-541.3c-41.3,90.1-69.5,129.2-95.8,279.8
		C236,1516.2,243.3,1567.3,256.4,1627.2L256.4,1627.2z"/>
	<path class="st16" d="M253.6,1628.3c66.4-262.3,67.2-350.9,7.8-615.1c-28.4,105.3-52.2,152.3-52.2,323.2S227.3,1563.1,253.6,1628.3
		L253.6,1628.3z"/>
	<path class="st14" d="M250.3,1520.4c14.3-65.8,24.9-132.2,25.8-198.5c0.8-62.8-7.1-125.9-18.5-188.5c-5.3,22.6-9.6,45.2-12.5,68.3
		c-5.7,44.6-7.1,89.7-7.1,134.5c0,56.3,1.3,114.5,10.1,170.5C248.6,1511.4,249.4,1515.9,250.3,1520.4L250.3,1520.4z"/>
	<path class="st14" d="M270.1,1531.9c22.7-56.6,42.3-114.1,53.3-172.5c10.4-55.2,13.2-111.6,12.7-167.9c-8.2,19.4-15.4,39-21.5,59
		c-11.9,38.8-20.1,78.4-27,117.9c-8.7,49.6-16.5,101-17.4,151.2C270.1,1523.7,270.1,1527.8,270.1,1531.9L270.1,1531.9z"/>
	<path class="st15" d="M240.8,1616.5c-34.2-251.9-59.6-345.7-108.5-540.5c-5.2,95.7-17.2,139.7,14.8,289.6
		C179.2,1515.4,205.6,1562.4,240.8,1616.5L240.8,1616.5z"/>
	<path class="st14" d="M217.7,1522.3c0.2-59.4-9.7-119-21.4-177.2c-12.3-57.7-23.1-109.5-44.8-163.1c-0.4,20.5,0.1,40.8,1.9,61.4
		c3.4,39.8,10.6,79.6,19,118.9c10.6,49.4,22.6,100.3,40.8,148.4C214.5,1514.5,216.1,1518.4,217.7,1522.3L217.7,1522.3z"/>
	<path class="st17" d="M239.6,1757.5c104.1,0,188.5-79.9,188.5-178.5c0-62.7-34.2-117.9-85.9-149.8c-30.4,3-68.7,4.8-110.3,4.8
		c-35.7,0-69-1.3-97-3.6C84.4,1462.4,51,1517,51,1579C51,1677.6,135.4,1757.5,239.6,1757.5L239.6,1757.5z"/>
	<path class="st18" d="M427.9,1572.4c-1.4-36.9-14.6-70.9-36.2-98.7H87.3c-21.5,27.9-34.8,61.9-36.2,98.7H427.9L427.9,1572.4z"/>
	<path class="st18" d="M239.6,1757.5c68.5,0,128.5-34.6,161.5-86.4H78C111,1722.9,171,1757.5,239.6,1757.5L239.6,1757.5z"/>
	<path class="st19" d="M143.4,1499.4c14.2,0,25.7-11.5,25.7-25.7c0-14.2-11.5-25.7-25.7-25.7c-14.2,0-25.7,11.5-25.7,25.7
		C117.7,1487.9,129.2,1499.4,143.4,1499.4L143.4,1499.4z"/>
	<path class="st20" d="M1315.6,1152.1l-45.4,36.5c40.7,44.8,60.3,51,88.8,102.7c26.8,48.6,34.3,56,62.6,23.6l68.9-78.8
		c18.2-19.5,7.7-46.6-5.4-70.8c-16.5,12.6-13.5,56-63.5,59.3C1348.4,1229.6,1347.4,1205.2,1315.6,1152.1L1315.6,1152.1z"/>
	<path class="st21" d="M1358.3,1289.9l0.8,1.4c26.8,48.6,34.3,56,62.6,23.6l13.5-15.5l1.2-1.5c-12.4-10.6-29.5-16.9-47.9-16.2
		C1377.3,1282.2,1367,1285.1,1358.3,1289.9L1358.3,1289.9z"/>
	<path class="st21" d="M1499.8,1203.4c-1.8-12.5-7.9-25.7-14.6-38.1c-8.1,6.2-11.5,19.9-18.9,32.7
		C1476.4,1202.7,1488.1,1204.7,1499.8,1203.4L1499.8,1203.4z"/>
	<path class="st22" d="M970.7,906.5c38.2-22.2,49.9-22.4,75-27.6l26.4-4c8.7-1.3,11-2.3,6.1,2.4c-4.8,3.7-7,4.3-12.8,5
		c-5.2,0.6-8.3,1-13.5,1.7c8.7,0.8,18.9,1.5,27.6,2.3c6.4-0.5,11.3-0.8,17.7-1.3c-7.7,9.4-9.9,7.3-21.2,9.4l-25.8-3.4l25.8,3.4
		l18.1,2.5c-8.7,7.5-10.8,4.9-22,4.5l-22.4-2.6c14.1,4.5,23.7,7.5,38.1,9.5c-13.2,10.1-33.7,1-49-2L1019,913l34.1-1.6l-9.2,7.2
		l-17,4.5c-26.1,5.2-35.7-2.1-47.4,12.1L884.6,1042c-5.1,5.3-9.5,10-13.5,14l-4.5-61.6l104-87.8
		C970.6,906.6,970.7,906.6,970.7,906.5L970.7,906.5z"/>
	<polygon class="st23" points="1169.7,896.1 1190.7,678.6 1257.7,632.7 1267.5,647.5 1225.1,900.3 1207.6,896.9 1169.7,896.1 	"/>
	<polygon class="st2" points="1178.5,878.3 1195.6,682.8 1252.8,646.6 1216,866 1178.5,878.3 	"/>
	<polygon class="st23" points="1001.7,965.8 995.5,941.8 1219.1,885.7 1231.8,916.6 1001.7,965.8 	"/>
	<polygon class="st19" points="1189.6,795.5 1196.8,696.6 1240.5,672.3 1220.1,785.1 1189.6,795.5 	"/>
	<polygon class="st2" points="1015.6,929.1 1166.3,893.6 1219.1,885.7 995.5,941.8 1015.6,929.1 	"/>
	<path class="st24" d="M1192.4,918.3c4.2-0.1,7.3-3.6,7-7.7c-0.4-4.1-4-7.3-8.2-7.2c-4.2,0.1-7.3,3.6-7,7.7
		C1184.6,915.3,1188.2,918.5,1192.4,918.3L1192.4,918.3z"/>
	<path class="st24" d="M1171.5,922.3c4.2-0.1,7.3-3.6,7-7.7c-0.4-4.1-4-7.3-8.2-7.2c-4.2,0.1-7.3,3.6-7,7.7
		C1163.7,919.3,1167.3,922.5,1171.5,922.3L1171.5,922.3z"/>
	<polygon class="st25" points="1197.1,712 1197.6,706.6 1226.9,692.2 1225.4,699.8 1197.1,712 	"/>
	<polygon class="st25" points="1196.2,722.2 1196.7,716.9 1225.8,704.6 1224.2,712 1196.2,722.2 	"/>
	<polygon class="st25" points="1195.6,732.4 1196.1,727.1 1224.3,716.5 1222.9,723.9 1195.6,732.4 	"/>
	<path class="st26" d="M770.6,1206.8c39.8,122.5,139.7,161.6,222,71.4l190.9-221c22.4,78.9,60.6,103.7,141.6,189.1l39.3-26.3
		c-42.1-78-97.4-206.4-167.2-287.4c-29.1-33.7-233.4,128.2-262.3,164.9L770.6,1206.8L770.6,1206.8z"/>
	<path class="st27" d="M672.2,910.5c30.6,103.3,49.8,196,101.9,291.3l155.9-93.6l-58.6-114.3l18.9-45.6l-72.8-55.8l-55.7-75.8
		l-63-8.3L672.2,910.5L672.2,910.5z"/>
	<path class="st17" d="M1385.1,1165.9l-45.7,40.2c44.4,45.1,65,50.7,97.1,103.6c30.1,49.7,38.2,57.1,66.3,21.9l68.4-85.6
		c18.1-21.3,23.6-39.8,8.9-64.5c-16.6,13.9-43.8,42.1-81.2,55.6C1427.4,1262.7,1420.6,1220.1,1385.1,1165.9L1385.1,1165.9z"/>
	<path class="st28" d="M1583,1229.1c7.8-14.9,7.8-29.6-3-47.6c-7.8,6.6-18,16.3-30.5,26.2C1557.7,1217.7,1569.5,1225.3,1583,1229.1
		L1583,1229.1z"/>
	<path class="st28" d="M1435.8,1308.5l0.7,1.2c30.1,49.7,38.2,57.1,66.3,21.9l12.9-16.1c-12.4-10.6-29.5-16.9-47.9-16.2
		C1455.8,1299.7,1444.9,1303,1435.8,1308.5L1435.8,1308.5z"/>
	<path class="st27" d="M765.4,589.8l13.6,33.2c5.7,48.8,3.9,42.7,36.7,53.6l-14.1,18.2l7.4,32.6l3.5,12.1
		c3.7,15.1,1.2,20.4-12.1,21.7l-27.5,2.8h0h0l-14.5,1.5c-16.3,4.9-6.1,22.6,5.8,57l-65.4-14.1l-3.1-57.3l-1.1-0.3
		c-0.6,0-86-28.7-100-95.2c-9.7-46.1,43.3-86.2,83.9-87.6C719,566.4,747,568.6,765.4,589.8L765.4,589.8z"/>
	<path class="st19" d="M804.9,713.3l2.3,8.9c-7.3,0.7-19.1-2.6-22.6-11.3C790.1,713.3,798.1,714.7,804.9,713.3L804.9,713.3z"/>
	<path class="st22" d="M769.9,764.2l-11.6,1.2c-9.4,2.8-10,9.9-6.6,21.9l-37.2-37.5l55.7,13.5L769.9,764.2L769.9,764.2z"/>
	<polygon class="st10" points="764.3,623.2 772.1,630.5 745.7,656.1 764.3,623.2 	"/>
	<path class="st10" d="M771.3,666.5c2.8-0.1,4.7-4,4.3-8.8c-0.4-4.7-3-8.5-5.8-8.4c-2.8,0.1-4.7,4-4.3,8.8
		C765.9,662.9,768.5,666.6,771.3,666.5L771.3,666.5z"/>
	<path class="st21" d="M693.2,802.2l68.5,14.4c29.5,27.6,62.4,68.8,90.9,98.8c14,14.8,23.8,18.5,37.6,32.8l-7.7,48.4l34.2,84.3
		l4.7,10.7l2.6,4.9l5.3,4.3c-25.3,36.4-122.9,75.3-167,99.5c-6.8-19,0.9-11.8-8.3-31.2c-50.6-107-119.8-226.9-77.1-332.9
		C680.6,827.3,691.2,817.9,693.2,802.2L693.2,802.2z"/>
	<path class="st23" d="M1177.4,901.9c11.1,26.3,1.3,83-24.2,130.8c-10.1,19-22.7,36.6-37.5,50.3c-14.8,13.9-31.8,23.9-50.7,27.5
		c-37.8,7.3-82.7-10.7-132-74.1c-5.7-7.3-10.7-13.8-15.9-20.7c-35.5-46.4-83.4-109.1-146.5-164c-19.8-17.3-39.3-43-53.4-69.3
		c-13.6-25.3-22.2-51.2-21.6-70.8l4.4,0.4l0,0c-0.6,18.8,7.8,43.9,21,68.5c13.9,25.8,32.9,51.1,52.4,68
		c63.5,55.2,111.5,118.1,147.1,164.7c6,7.8,11.6,15.2,15.9,20.7c48,61.8,91.4,79.4,127.6,72.4c18-3.5,34.4-13.1,48.7-26.5
		c14.4-13.5,26.7-30.7,36.7-49.3c25.4-47.6,35.2-103.8,23.7-127.9L1177.4,901.9z"/>
	<polygon class="st29" points="819.6,989.1 779.4,1000.9 852.1,938.9 819.6,989.1 	"/>
	<polygon class="st29" points="921.4,1091.6 806.7,1123.9 914.4,1082.1 921.4,1091.6 	"/>
	<polygon class="st29" points="903.2,1083.5 804.6,1099.9 897,1073.1 903.2,1083.5 	"/>
	<path class="st6" d="M777.8,1242.8c57.1,99.8,130.5,144.9,204.3,47.3l213.7-247.4c45.3,90.1,69.4,116.8,192.1,213.3l39.2-45.4
		c-55.6-59.2-145.1-203.2-219.8-279.7c-29.9-30.6-243.5,137.2-261.8,166.7l-94.5,58.2l-80.8,48.5L777.8,1242.8L777.8,1242.8z"/>
	<path class="st30" d="M777.8,1242.8c33.6,58.7,72.9,98.5,114.5,101.4l1.5-1l-95-131.6l-26.8,18.8L777.8,1242.8L777.8,1242.8z"/>
	<path class="st27" d="M781.3,853.4l-78.7,42.2L877.1,1069c38.1,37.9,42.6,29.3,76.1-6.6l89.8-101.9l39.5-34.5l23.1-20.3l-0.4-0.2
		l16.3-12.7l10.7,0.4c8.3,0.2,14.5-1,15.6-4c-1-0.7-4.5-1.5-8.7-2.2c7.1-0.4,12.2-1.6,13.3-4c-3.4-2-29.5-4.5-33.8-3.9
		c-4.5,0.6-8.2,1.9-11.8,3.5l5.9-4.8l13.6-1.4c10.6-1.2,18.3-3.5,19.4-6.7c-3.8-1.5-31.4-0.5-35.7,0.7c-10.8,3-17.1,8.6-26.3,15.7
		l12-18.1l11.1-4.1c8.6-3.3,14.6-7,14.8-10.4c-3.5-0.7-26.6,5.6-30,7.7c-7.7,4.6-11.7,10.6-16.9,18.3c-0.4-4.1-1.1-8.2-3.4-11.9
		c-3-4.7-6.3-6.7-6.5-5.5c-0.4,2.6,0.2,7.1,0.1,10.1c-0.1,4.7-0.7,10.5-2.2,16.2c-15.7,18.6-28.6,37.8-42.6,57.8l-105.7,85
		L781.3,853.4L781.3,853.4z"/>
	<path class="st21" d="M715.6,817.4c-7.7,10.7-13.5,20.2-17.6,28.7c-27.6,57,18.5,74.7,81.4,154.8l72.7-62
		C800.3,861,802.6,836.6,715.6,817.4L715.6,817.4z"/>
	<path class="st31" d="M784.3,994.6c-62.9-80.1-108.9-97.8-81.4-154.8c2.9-6.1,6.7-12.6,11.4-19.7c-7,9.9-12.4,18.8-16.3,26.8
		c-27.6,56.9,18.5,74.7,81.4,154.8l70.2-60.8l0-0.1L784.3,994.6z"/>
	<polygon class="st31" points="827.9,909.7 849.8,941.2 852.1,938.9 	"/>
	<path class="st32" d="M813.5,618.6l-53.3-60.5l27.7,8.2l-36.1-24.5c-66.8-0.9-105.3,3.9-132.3,30.5
		c-45.9,45.1-50.9,119.8,12.6,159.8c16,10.1,51.2,14.2,64.1,29.6c7.3-56.7,43.2-126.7-10.6-164C731.9,588.1,767.4,618.9,813.5,618.6
		L813.5,618.6z"/>
	<path class="st27" d="M691.8,718.2c12.8-0.4,22.3-12.3,21-26.6c-1.2-14.2-12.6-25.4-25.5-24.9c-12.8,0.4-22.3,12.3-21,26.6
		C667.6,707.5,678.9,718.7,691.8,718.2L691.8,718.2z"/>
	<polygon class="st22" points="801.8,696.4 815.6,676.6 790,691.8 801.8,696.4 	"/>
	<path class="st33" d="M813.3,618.2l-53.3-60.5l27.7,8.2l-17.9-12.2l-19.9-5.9l53.3,60.5c-46.1,0.3-81.6-30.5-128-20.9
		c4.3,3,8.1,6.2,11.3,9.6C732.4,588.3,767.7,618.6,813.3,618.2L813.3,618.2z M608,711.6c6.5,7.3,14.5,14.1,24,20.1
		c16,10.1,51.2,14.2,64.1,29.6c7-55.1,41.2-122.8-6.3-160.8c32,39.1,2.7,100.3-3.7,150.9c-12.9-15.4-48.1-19.6-64.1-29.6
		C616.8,718.6,612.2,715.2,608,711.6L608,711.6z"/>
	<path class="st34" d="M707.1,715.1c18.1-6.4,27.1-26.1,20-44.1c-5.4-13.7-18.7-22.4-32.7-22.8L654.5,547l-24.2,8.6l40,101.2
		c-10.2,9.1-14.1,23.8-8.7,37.4C668.6,712.1,689,721.5,707.1,715.1L707.1,715.1z"/>
	<path class="st35" d="M704.8,709.2c14.9-5.3,22.2-21.4,16.4-36.1c-5.8-14.7-22.5-22.4-37.4-17.1c-14.9,5.3-22.2,21.4-16.4,36.1
		C673.2,706.8,690,714.5,704.8,709.2L704.8,709.2z"/>
	<path class="st26" d="M1195.8,1042.7c5.5-1,7-18.3,5.2-24.2c-1.3-4-14.1-29.6-13.6-23.6c0.9,10.9,2.5,26.4,8,36
		C1196.9,1033.5,1200.1,1041.9,1195.8,1042.7L1195.8,1042.7z"/>
	<path class="st29" d="M726.2,937.3c-0.6-3.9-12.6-6.6-16.7-5.8c-2.8,0.5-20.8,7.2-16.6,7.3c7.6,0.3,18.3,0.6,25.1-2.3
		C719.8,935.7,725.7,934.3,726.2,937.3L726.2,937.3z"/>
	<path class="st26" d="M1194.9,1041.7c18.5,0.4,21.4-49.1,19.7-44.5c-4.3,11.8-14.3,18.7-13.9,33.5
		C1200.8,1033.5,1199.5,1041.8,1194.9,1041.7L1194.9,1041.7z"/>
	<path class="st29" d="M726.4,938.6c0.9-18.5-48.2-27.9-43.6-25.6c11.6,5.9,18.2,16.8,32.9,18.3
		C718.4,931.6,726.6,934.1,726.4,938.6L726.4,938.6z"/>
	<path class="st26" d="M800.2,1233.2c1.3-0.6,1.4-3.2,0.2-5.8c-1.2-2.7-3.3-4.4-4.6-3.8c-1.3,0.6-1.4,3.2-0.2,5.8
		C796.8,1232,798.9,1233.7,800.2,1233.2L800.2,1233.2z"/>
	<path class="st22" d="M781.6,673.5c-1.3,2.4-4.1,4.1-7.4,4.2c-4.2,0.1-8-2.4-9.2-5.9c2.3,2,6,3.3,10.2,3.2
		C777.6,674.9,779.8,674.4,781.6,673.5L781.6,673.5z"/>
	<path class="st33" d="M619.9,584.3c-21.6,7.8-35,52.9-30.8,69.7C587.1,641.2,606.2,595.1,619.9,584.3L619.9,584.3z"/>
	<path class="st34" d="M681.5,673.6l8-2.7c2-0.7,3.5-1,4.6-1c1.1,0,2.2,0.4,3.2,1c1,0.7,1.8,1.6,2.3,2.9c0.4,1,0.5,2,0.4,2.8
		c-0.1,0.9-0.5,1.7-1.1,2.5c1.1,0,2.1,0.3,3.1,1c1,0.7,1.7,1.7,2.2,2.9c0.6,2,0.5,3.8-0.4,5.2c-0.9,1.4-2.6,2.5-5,3.3l-9.3,3.2
		l-4.7-12.2l3.5-1.2l0,0l3.7-1.3c1.5-0.5,2.5-0.9,3-1.3c0.5-0.4,0.9-0.8,1.1-1.5c0.3-0.6,0.3-1.3,0-2c-0.4-1.1-1.1-1.8-2-1.9
		c-0.9-0.2-2.3,0-4.2,0.7l-1.9,0.6l-1.9,0.6l-3.5,1.2L681.5,673.6L681.5,673.6z M691.9,690.6l4.6-1.6c2-0.7,3.2-1.4,3.8-2.1
		c0.6-0.7,0.6-1.7,0.2-2.8c-0.3-0.7-0.7-1.2-1.4-1.7c-0.6-0.4-1.3-0.6-2.1-0.5c-0.7,0.1-1.9,0.4-3.4,0.9l-4.2,1.4L691.9,690.6
		L691.9,690.6z"/>
	<path class="st36" d="M869.8,1326.3c-353.2,133.1-271.5-368.4-312-371.2c57.6-0.9,127.4,59.2,154.8,110.6
		c35.9,67.3,47.1,113.3,75.8,175C798.4,1262.4,842.6,1331.4,869.8,1326.3L869.8,1326.3z"/>
	<path class="st12" d="M642.4,1066.3c-38-0.5-40.1-65.3-46.1-65.8C624.9,1000.1,634.2,1067.9,642.4,1066.3L642.4,1066.3z"/>
	<path class="st12" d="M664.5,1182c-35.9-12.4-17.4-74.7-22.9-76.9C668.9,1113.6,656.2,1180.8,664.5,1182L664.5,1182z"/>
	<path class="st12" d="M736.9,1289.2c-37.8,3.6-46.8-60.7-52.8-60.5C712.5,1225.2,728.9,1291.6,736.9,1289.2L736.9,1289.2z"/>
	<path class="st12" d="M639.7,1090.6c2.7,0,4.8-2.2,4.8-4.8c0-2.7-2.2-4.8-4.8-4.8c-2.7,0-4.8,2.2-4.8,4.8
		C634.9,1088.4,637.1,1090.6,639.7,1090.6L639.7,1090.6z"/>
	<path class="st12" d="M674,1212.4c2.7,0,4.8-2.2,4.8-4.8c0-2.7-2.2-4.8-4.8-4.8c-2.7,0-4.8,2.2-4.8,4.8
		C669.2,1210.3,671.4,1212.4,674,1212.4L674,1212.4z"/>
	<path class="st6" d="M439.9,496.5c73.6,0,133.2-59.6,133.2-133.2c0-73.6-59.6-133.2-133.2-133.2c-73.6,0-133.2,59.6-133.2,133.2
		C306.7,436.9,366.3,496.5,439.9,496.5L439.9,496.5z"/>
	<path class="st8" d="M439.9,243.4c66.2,0,119.9,53.7,119.9,119.9c0,66.2-53.7,119.9-119.9,119.9c-66.2,0-119.9-53.7-119.9-119.9
		C320,297.1,373.7,243.4,439.9,243.4L439.9,243.4z"/>
	<path class="st6" d="M439.6,243.1l0.3,9.8l-1.5,0l-1.5,0l0.3-9.8l1.2,0L439.6,243.1L439.6,243.1z M492.5,267l5.1-8.3
		c0.7,0.4,1.4,0.8,2.1,1.2l-4.6,8.6C494.3,268,493.4,267.5,492.5,267L492.5,267z M533.6,307l8.6-4.6c0.4,0.7,0.8,1.4,1.2,2.1
		l-8.3,5.1C534.6,308.7,534.1,307.8,533.6,307L533.6,307z M549.2,362.2l9.7,0.3l0,1.2l0,1.2l-9.7,0.3l0-1.5L549.2,362.2L549.2,362.2
		z M535.1,417.8l8.3,5.1c-0.4,0.7-0.8,1.4-1.2,2.1l-8.6-4.6C534.1,419.5,534.6,418.6,535.1,417.8L535.1,417.8z M495.1,458.9l4.6,8.6
		c-0.7,0.4-1.4,0.8-2.1,1.2l-5.1-8.3C493.4,459.9,494.3,459.4,495.1,458.9L495.1,458.9z M439.9,474.4l-0.3,9.8l-1.2,0l-1.2,0
		l-0.3-9.8l1.5,0L439.9,474.4L439.9,474.4z M384.3,460.4l-5.1,8.3c-0.7-0.4-1.4-0.8-2.1-1.2l4.6-8.6
		C382.6,459.4,383.5,459.9,384.3,460.4L384.3,460.4z M343.2,420.4l-8.6,4.6c-0.4-0.7-0.8-1.4-1.2-2.1l8.3-5.1
		C342.2,418.6,342.7,419.5,343.2,420.4L343.2,420.4z M327.7,365.2l-9.8-0.3l0-1.2l0-1.2l9.8-0.3l0,1.5L327.7,365.2L327.7,365.2z
		 M341.7,309.6l-8.3-5.1c0.4-0.7,0.8-1.4,1.2-2.1l8.6,4.6C342.7,307.8,342.2,308.7,341.7,309.6L341.7,309.6z M381.7,268.5l-4.6-8.6
		c0.7-0.4,1.4-0.8,2.1-1.2l5.1,8.3C383.5,267.5,382.6,268,381.7,268.5L381.7,268.5z"/>
	<path class="st6" d="M426.5,470.7c1.9,0.3,19.9,0.2,21.1-0.2c0.5-1.1,0.5-10.7,0.1-12.1c-1.5-0.6-14.7-0.3-17.6-0.3
		c-0.2-1.5-0.3-3.4,0.1-4.9c2.3-0.9,15.6-0.1,16.7-0.3l0.5-0.2c0.1,0,0.2-0.1,0.2-0.1l0.2-3.3l-21.3-0.1L426.5,470.7L426.5,470.7z
		 M454.8,269.9l0.3-0.5c0.5-1.4,0.2-12,0.1-12.9c-2-0.4-21.5-0.5-22.5,0c-1,0.9-0.8,3.5-0.4,4.8l17.7,0.1l-0.2,4.1l-15.7-0.1
		c-1.1,0-1.1,0-1.8,0.6c-0.4,1.2-0.3,11.3-0.1,13.1c2.4,0.4,21.2,0.3,22.8-0.2l0-4.4l-17.8-0.1v-4.1
		C440.4,270.1,453.4,270.9,454.8,269.9L454.8,269.9z M522.2,375l0-4.3l17.7,0l-17.6,0c2.8-0.9,14.6-0.4,17-0.4l0-3.8l-8.9-0.1
		l0.2-4.1c0.1-1.2,7.2-0.7,8.7-0.7l0-4l-17.9-0.1l0-4.4l0.8-0.2l21.9-0.1c0.6,0.9,0.4,4.1,0.4,5.7c0,2.8,0.4,16.1-0.3,16.7
		c-1.5,0.5-20,0.4-22.8,0.2c0-1.2-0.2-2.9,0.1-4c0-0.1,0.1-0.1,0.1-0.2c0-0.1,0.2-0.3,0.5-0.4L522.2,375L522.2,375z M418.7,256.8
		l0,4.2l4.3,0.2c0.5,3.4,0.2,14.9,0.2,17.8c1.3,0.2,3.7,0.4,4.5-0.2c0.4-0.3,0.6,0.3,0.6-2.5l-0.1-19.8
		C425.7,256.4,420.7,256.1,418.7,256.8L418.7,256.8z M330.1,370.7c-0.9,0.4-0.5-0.1-0.8,0.8l0,3.8c3.1,0.2,21.1,0.3,22.8-0.2l0-21.7
		l-0.2-0.6l-21.9-0.1l-0.6,0.5l0,13.2l17.8,0l0,4.2l-6.3,0L330.1,370.7L330.1,370.7z M334.1,357.5l13-0.1l0,4.2l-13.1-0.1
		L334.1,357.5L334.1,357.5z M430.5,466.7l12.6,0.1l0.1-4h-12.9L430.5,466.7L430.5,466.7z"/>
	<polygon class="st6" points="324.7,360 455,360 455,355.2 324.7,355.2 324.7,360 	"/>
	<polygon class="st6" points="388,307.3 439.3,373.4 445.5,368.6 394.1,302.5 388,307.3 	"/>
	<polygon class="st11" points="2134.7,1668.6 2220.7,1668.6 2241.4,1762 2200.1,1762 2134.7,1668.6 	"/>
	<path class="st37" d="M245.6,1751.2c97.8,0,177-70.2,177-156.9c0-86.7-79.3-156.9-177-156.9c-1.1,0-2.3,0-3.4,0
		c92.3,1.7,166.5,69.2,166.5,152.3c0,84.1-76.1,152.3-170.1,152.3c-93.1,0-168.7-67-170-150.1c0,0.8,0,1.5,0,2.3
		C68.6,1681,147.8,1751.2,245.6,1751.2L245.6,1751.2z"/>
	<polygon class="st19" points="1699.3,688.2 1719.8,688.2 1719.8,587.4 1699.3,587.4 1699.3,688.2 	"/>
</g>
</svg>
